<svg width="100" height="100" viewBox="0 0 100 100" fill="none" xmlns="http://www.w3.org/2000/svg">
<path d="M77.0212 22.6836L41.2675 58.4373L29.9727 47.1425" stroke="#E0A75E" stroke-width="2.48482" stroke-miterlimit="10"/>
<g opacity="0.15">
<path d="M50.0041 97.9272C72.8701 97.9272 91.4066 79.3906 91.4066 56.5246C91.4066 33.6586 72.8701 15.1221 50.0041 15.1221C27.1381 15.1221 8.60156 33.6586 8.60156 56.5246C8.60156 79.3906 27.1381 97.9272 50.0041 97.9272Z" stroke="black" stroke-width="2.48482" stroke-miterlimit="10" stroke-linecap="round"/>
</g>
<path d="M50.0041 84.8754C72.8701 84.8754 91.4066 66.3389 91.4066 43.4729C91.4066 20.6069 72.8701 2.07031 50.0041 2.07031C27.1381 2.07031 8.60156 20.6069 8.60156 43.4729C8.60156 66.3389 27.1381 84.8754 50.0041 84.8754Z" stroke="black" stroke-width="2.48482" stroke-miterlimit="10"/>
</svg>
