<svg width="104" height="20" viewBox="0 0 104 20" fill="none" xmlns="http://www.w3.org/2000/svg">
<path d="M9.24494 0.711914L11.8641 6.35182L18.0374 7.10001L13.4829 11.3338L14.679 17.4362L9.24494 14.4129L3.8109 17.4362L5.00697 11.3338L0.452479 7.10001L6.62573 6.35182L9.24494 0.711914Z" fill="#FFCC00"/>
<path d="M33.0477 0.711914L35.6669 6.35182L41.8401 7.10001L37.2856 11.3338L38.4817 17.4362L33.0477 14.4129L27.6136 17.4362L28.8097 11.3338L24.2552 7.10001L30.4285 6.35182L33.0477 0.711914Z" fill="#FFCC00"/>
<path d="M56.8485 0.711914L59.4677 6.35182L65.6409 7.10001L61.0864 11.3338L62.2825 17.4362L56.8485 14.4129L51.4144 17.4362L52.6105 11.3338L48.056 7.10001L54.2292 6.35182L56.8485 0.711914Z" fill="#FFCC00"/>
<path d="M80.6512 0.711914L83.2704 6.35182L89.4436 7.10001L84.8892 11.3338L86.0852 17.4362L80.6512 14.4129L75.2171 17.4362L76.4132 11.3338L71.8587 7.10001L78.032 6.35182L80.6512 0.711914Z" fill="#FFCC00"/>
<path d="M98.5655 17.4362L103.999 14.4129V0.711914L101.38 6.35182L95.207 7.10001L99.7615 11.3339L98.5655 17.4362Z" fill="#FFCC00"/>
</svg>
