<svg width="33" height="33" viewBox="0 0 33 33" fill="none" xmlns="http://www.w3.org/2000/svg">
<path d="M28.9395 20.3892L28.6941 21.098L28.6941 21.098L28.9395 20.3892ZM28.9395 12.8276L29.1849 13.5363L29.1849 13.5363L28.9395 12.8276ZM4.89122 20.3892L5.1366 21.098L5.1366 21.098L4.89122 20.3892ZM4.89122 12.8276L4.64585 13.5363L4.64585 13.5363L4.89122 12.8276ZM21.4457 13.1387C21.7386 12.8458 21.7386 12.371 21.4457 12.0781C21.1528 11.7852 20.6779 11.7852 20.385 12.0781L20.9154 12.6084L21.4457 13.1387ZM12.385 20.0781C12.0921 20.371 12.0921 20.8458 12.385 21.1387C12.6779 21.4316 13.1528 21.4316 13.4457 21.1387L12.9154 20.6084L12.385 20.0781ZM8.91536 28.6084V27.8584C6.38406 27.8584 4.33203 25.8064 4.33203 23.2751H3.58203H2.83203C2.83203 26.6348 5.55563 29.3584 8.91536 29.3584V28.6084ZM30.2487 23.2751H29.4987C29.4987 25.8064 27.4467 27.8584 24.9154 27.8584V28.6084V29.3584C28.2751 29.3584 30.9987 26.6348 30.9987 23.2751H30.2487ZM24.9154 4.6084V5.3584C27.4467 5.3584 29.4987 7.41043 29.4987 9.94173H30.2487H30.9987C30.9987 6.582 28.2751 3.8584 24.9154 3.8584V4.6084ZM8.91536 4.6084V3.8584C5.55563 3.8584 2.83203 6.582 2.83203 9.94173H3.58203H4.33203C4.33203 7.41043 6.38406 5.3584 8.91536 5.3584V4.6084ZM28.9395 20.3892L29.1849 19.6805C27.9114 19.2396 26.9987 18.0296 26.9987 16.6084H26.2487H25.4987C25.4987 18.6884 26.8352 20.4544 28.6941 21.098L28.9395 20.3892ZM26.2487 16.6084H26.9987C26.9987 15.1872 27.9114 13.9772 29.1849 13.5363L28.9395 12.8276L28.6941 12.1188C26.8352 12.7624 25.4987 14.5284 25.4987 16.6084H26.2487ZM7.58203 16.6084H6.83203C6.83203 18.0296 5.91933 19.2396 4.64585 19.6805L4.89122 20.3892L5.1366 21.098C6.99549 20.4544 8.33203 18.6884 8.33203 16.6084H7.58203ZM4.89122 12.8276L4.64585 13.5363C5.91933 13.9772 6.83203 15.1872 6.83203 16.6084H7.58203H8.33203C8.33203 14.5284 6.99549 12.7624 5.1366 12.1188L4.89122 12.8276ZM30.2487 11.2751H30.9987V9.94173H30.2487H29.4987V11.2751H30.2487ZM30.2487 21.9417H29.4987V23.2751H30.2487H30.9987V21.9417H30.2487ZM3.58203 21.9417H2.83203V23.2751H3.58203H4.33203V21.9417H3.58203ZM3.58203 11.2751H4.33203V9.94173H3.58203H2.83203V11.2751H3.58203ZM24.9154 28.6084V27.8584H8.91536V28.6084V29.3584H24.9154V28.6084ZM24.9154 4.6084V3.8584H8.91536V4.6084V5.3584H24.9154V4.6084ZM4.89122 20.3892L4.64585 19.6805C3.79321 19.9757 2.83203 20.7552 2.83203 21.9417H3.58203H4.33203C4.33203 21.6555 4.59753 21.2846 5.1366 21.098L4.89122 20.3892ZM28.9395 12.8276L29.1849 13.5363C30.0375 13.2411 30.9987 12.4616 30.9987 11.2751H30.2487H29.4987C29.4987 11.5613 29.2332 11.9322 28.6941 12.1188L28.9395 12.8276ZM4.89122 12.8276L5.1366 12.1188C4.59753 11.9322 4.33203 11.5613 4.33203 11.2751H3.58203H2.83203C2.83203 12.4616 3.79321 13.2411 4.64585 13.5363L4.89122 12.8276ZM28.9395 20.3892L28.6941 21.098C29.2332 21.2846 29.4987 21.6555 29.4987 21.9417H30.2487H30.9987C30.9987 20.7552 30.0375 19.9757 29.1849 19.6805L28.9395 20.3892ZM14.2487 12.6084H13.4987C13.4987 12.9306 13.2375 13.1917 12.9154 13.1917V13.9417V14.6917C14.066 14.6917 14.9987 13.759 14.9987 12.6084H14.2487ZM12.9154 13.9417V13.1917C12.5932 13.1917 12.332 12.9306 12.332 12.6084H11.582H10.832C10.832 13.759 11.7648 14.6917 12.9154 14.6917V13.9417ZM11.582 12.6084H12.332C12.332 12.2862 12.5932 12.0251 12.9154 12.0251V11.2751V10.5251C11.7648 10.5251 10.832 11.4578 10.832 12.6084H11.582ZM12.9154 11.2751V12.0251C13.2375 12.0251 13.4987 12.2862 13.4987 12.6084H14.2487H14.9987C14.9987 11.4578 14.066 10.5251 12.9154 10.5251V11.2751ZM22.2487 20.6084H21.4987C21.4987 20.9306 21.2375 21.1917 20.9154 21.1917V21.9417V22.6917C22.066 22.6917 22.9987 21.759 22.9987 20.6084H22.2487ZM20.9154 21.9417V21.1917C20.5932 21.1917 20.332 20.9306 20.332 20.6084H19.582H18.832C18.832 21.759 19.7648 22.6917 20.9154 22.6917V21.9417ZM19.582 20.6084H20.332C20.332 20.2862 20.5932 20.0251 20.9154 20.0251V19.2751V18.5251C19.7648 18.5251 18.832 19.4578 18.832 20.6084H19.582ZM20.9154 19.2751V20.0251C21.2375 20.0251 21.4987 20.2862 21.4987 20.6084H22.2487H22.9987C22.9987 19.4578 22.066 18.5251 20.9154 18.5251V19.2751ZM20.9154 12.6084L20.385 12.0781L12.385 20.0781L12.9154 20.6084L13.4457 21.1387L21.4457 13.1387L20.9154 12.6084Z" fill="black"/>
</svg>
